<?xml version="1.0" encoding="utf-8"?>
<!-- Generator: Adobe Illustrator 25.2.3, SVG Export Plug-In . SVG Version: 6.00 Build 0)  -->
<svg version="1.1" id="Capa_1" xmlns="http://www.w3.org/2000/svg" xmlns:xlink="http://www.w3.org/1999/xlink" x="0px" y="0px"
	 viewBox="0 0 163.7 16" style="enable-background:new 0 0 163.7 16;" xml:space="preserve">
<g>
	<path d="M14.9,13c0.5,1.1,0.8,1.5,1.3,1.5v0.1h-3v-0.1c0.8,0,0.7-0.5,0.2-1.5l-1.1-2.5H5.7l0,0.1c-1.2,2.6-1.6,3.9,0.1,3.9v0.1H2.7
		v-0.1c1.2,0,1.6-1.3,2.8-3.9l3.4-7.7C8.6,2.4,8.2,2.2,7.8,2.2V2c0.9,0,1.3,0,2.2-0.3L14.9,13z M5.8,10.3h6.5L9.3,3.7
		C9.2,3.4,9.1,3.2,9,3.1L5.8,10.3z"/>
	<path d="M16.8,2H19l9.1,10.7V6.1c0-1.5-0.2-3.9-1.5-3.9V2h3.1v0.1c-1.3,0-1.5,2.4-1.5,3.9v8.6h-0.2L18.9,3.9v6.7
		c0,1.5,0.2,3.9,1.5,3.9v0.1h-3.1v-0.1c1.3,0,1.5-2.4,1.5-3.9V3.7c-1.2-1.4-1.3-1.5-2-1.5V2z"/>
	<path d="M32.2,8.3c0,3.1,1.5,6.2,5,6.2c1.6,0,2.8-0.4,3-0.4V6.5h-3.6V6.3h4.9v7.9c-1.1,0-2.6,0.5-4.3,0.5c-3.5,0-6.4-2.3-6.4-6.4
		s3-6.4,6.4-6.4c1.9,0,3,0.7,4.1,0.1c0.4,0.8-0.5,1.1-1,1.1c-1.5,0-1.9-1-3.4-1C33.9,2.1,32.2,5.2,32.2,8.3z"/>
	<path d="M53.8,2H57v0.1c-0.8,0-1.6,0.5-2.9,2.7L51,10.4V13c0,1.3,0.5,1.5,0.8,1.5v0.1H49v-0.1c0.3,0,0.8-0.2,0.8-1.5v-2.4l-4.7-7
		c-0.8-1.2-1-1.5-1.6-1.5V2h3v0.1c-0.8,0-0.5,0.6,0.1,1.5l4.4,6.6l3-5.3c1.3-2.3,1-2.7-0.1-2.7V2z"/>
	<path d="M80.8,2h2.1v0.1c-0.3,0-0.8,0.2-0.8,1.5V13c0,1.3,0.5,1.5,0.8,1.5v0.1h-2.8v-0.1c0.3,0,0.8-0.2,0.8-1.5V2.4l-4.6,10.7
		l-0.7,1.5l-5.2-9.9v5.8c0,1.5,0.2,3.9,1.5,3.9v0.1h-3.1v-0.1c1.3,0,1.5-2.4,1.5-3.9V4.4l-0.4-0.7c-0.7-1.3-1-1.5-1.6-1.5V2h2.2
		l5.8,10.9L80.8,2z"/>
	<path d="M91.1,14.8c-3.8,0-6.4-2.6-6.4-6.4c0-3.9,2.6-6.4,6.4-6.4s6.4,2.6,6.4,6.4C97.6,12.2,94.9,14.8,91.1,14.8z M91.1,2.1
		c-3.5,0-5,3.1-5,6.2s1.5,6.2,5,6.2c3.5,0,5-3.1,5-6.2S94.6,2.1,91.1,2.1z"/>
	<path d="M99.4,14.5c0.3,0,0.8-0.2,0.8-1.5V3.7c0-1.3-0.5-1.5-0.8-1.5V2h5.7c3.1,0,4.7,1,4.7,2.9c0,2.1-1.9,3-4.1,3
		c1,0.3,1.5,0.7,2.6,0.7l1.9,4.3c0.5,1,0.7,1.5,1.3,1.5v0.1h-3v-0.1c0.8,0,0.7-0.5,0.2-1.5l-1.5-3.4c-0.6-1.3-1.4-1.7-2.9-1.7h-2.8
		v5c0,1.3,0.5,1.5,0.8,1.5v0.1h-2.8V14.5z M105.1,7.8c1.6,0,3.2-0.6,3.2-2.8c0-2.3-1.7-2.7-3.5-2.7h-3.4v5.6H105.1z"/>
	<path d="M124.6,13c0.5,1.1,0.8,1.5,1.3,1.5v0.1h-3v-0.1c0.8,0,0.7-0.5,0.2-1.5l-1.1-2.5h-6.6l0,0.1c-1.2,2.6-1.6,3.9,0.1,3.9v0.1
		h-3.1v-0.1c1.2,0,1.6-1.3,2.8-3.9l3.4-7.7c-0.3-0.5-0.7-0.7-1.1-0.7V2c0.9,0,1.3,0,2.2-0.3L124.6,13z M115.5,10.3h6.5L119,3.7
		c-0.1-0.3-0.2-0.5-0.3-0.6L115.5,10.3z"/>
	<path d="M129.5,14.4h1.1c3.9,0,6.6-0.7,7.3-3h0.1l-1,3.2h-9.7v-0.1c0.3,0,0.8-0.2,0.8-1.5V3.7c0-1.3-0.5-1.5-0.8-1.5V2h2.8v0.1
		c-0.3,0-0.8,0.2-0.8,1.5V14.4z"/>
	<path d="M138.9,2h9.7l1,3.2h-0.1c-0.8-2.3-3.5-3-7.3-3H141v4h0.5c1.9,0,3.9-0.3,3.9-1.7h0.1v3.6h-0.1c0-1.4-2.1-1.7-3.9-1.7H141v8
		h1.1c3.9,0,6.6-0.7,7.3-3h0.1l-1,3.2h-9.7v-0.1c0.3,0,0.8-0.2,0.8-1.5V3.7c0-1.3-0.5-1.5-0.8-1.5V2z"/>
	<path d="M155.6,7.1c-1.7-0.9-3.3-1.7-3.3-3.4c0-0.8,0.8-1.8,2.8-1.8c1.9,0,4.3,0.7,5.4,0.1c0.4,0.8-0.3,1.1-0.9,1.1
		c-1.7,0-3.3-1-4.8-1c-1,0-1.8,0.5-1.8,1.2c0,0.9,1.6,1.7,3.6,2.8l0.8,0.4c1.9,1.1,4.5,2.6,4.5,5.1c0,1.9-1.5,3.6-5.3,3.6
		c-3.7,0-5.9-2.1-5.9-3.8c0-1.6,1.5-2.3,2.1-2.4c-2.7,2.2-0.5,6,3.8,6c2.5,0,4.3-0.8,4.3-2.7c0-1.4-1.2-3-4.2-4.6L155.6,7.1z"/>
</g>
</svg>
